<svg width="23" height="23" viewBox="0 0 23 23" fill="none" xmlns="http://www.w3.org/2000/svg">
<path fill-rule="evenodd" clip-rule="evenodd" d="M11.5 2C17.2991 2 22 6.81943 22 12.7656C22 17.521 18.9949 21.5552 14.8253 22.98C14.293 23.0861 14.104 22.7499 14.104 22.4632C14.104 22.1083 14.1166 20.9491 14.1166 19.5085C14.1166 18.5047 13.7806 17.8496 13.4037 17.5157C15.742 17.249 18.199 16.3386 18.199 12.2037C18.199 11.0277 17.7916 10.068 17.1175 9.31411C17.2267 9.04216 17.5868 7.94715 17.0146 6.46455C17.0146 6.46455 16.1347 6.17608 14.1302 7.56838C13.2913 7.33003 12.3925 7.21011 11.5 7.20591C10.6075 7.21011 9.70975 7.33003 8.87185 7.56838C6.8653 6.17608 5.9833 6.46455 5.9833 6.46455C5.41315 7.94715 5.7733 9.04216 5.88145 9.31411C5.2105 10.068 4.79995 11.0277 4.79995 12.2037C4.79995 16.3281 7.2517 17.2525 9.58375 17.5244C9.28345 17.7932 9.0115 18.2674 8.917 18.9636C8.3185 19.2387 6.7981 19.7148 5.8615 18.0694C5.8615 18.0694 5.30605 17.035 4.25185 16.9594C4.25185 16.9594 3.2281 16.9458 4.18045 17.6136C4.18045 17.6136 4.8682 17.9444 5.34595 19.1886C5.34595 19.1886 5.9623 21.1101 8.8834 20.4591C8.88865 21.3589 8.8981 22.207 8.8981 22.4632C8.8981 22.7478 8.7049 23.0808 8.18095 22.981C4.00825 21.5583 1 17.5221 1 12.7656C1 6.81943 5.7019 2 11.5 2Z" fill="black"/>
</svg>
