<svg width="49" height="49" viewBox="0 0 49 49" fill="none" xmlns="http://www.w3.org/2000/svg">
<rect x="1" y="1" width="47" height="47" rx="23.5" fill="#2B2638"/>
<rect x="1" y="1" width="47" height="47" rx="23.5" stroke="#D9CBFF" stroke-opacity="0.4"/>
<circle cx="39" cy="6" r="3" fill="#E9001C"/>
<path d="M24.3333 19.8529L23.8139 20.3531C23.9498 20.4944 24.1373 20.5742 24.3333 20.5742C24.5293 20.5742 24.7169 20.4944 24.8528 20.3531L24.3333 19.8529ZM21.8591 32.1839C20.4022 31.0348 18.8092 29.9126 17.5453 28.4887C16.3062 27.0926 15.4419 25.4637 15.4419 23.3503H14C14 25.9139 15.0675 27.8696 16.4672 29.4466C17.8423 30.9958 19.5952 32.2351 20.9665 33.3168L21.8591 32.1839ZM15.4419 23.3503C15.4419 21.2817 16.6101 19.547 18.2048 18.8176C19.7541 18.1091 21.8357 18.2967 23.8139 20.3531L24.8528 19.3527C22.5055 16.9127 19.781 16.5106 17.6054 17.5056C15.4752 18.4798 14 20.742 14 23.3503H15.4419ZM20.9665 33.3168C21.4589 33.7052 21.9875 34.1193 22.5231 34.4325C23.0586 34.7455 23.6697 35 24.3333 35V33.5574C24.0357 33.5574 23.6856 33.4413 23.2506 33.1869C22.8158 32.9327 22.3648 32.5827 21.8591 32.1839L20.9665 33.3168ZM27.7002 33.3168C29.0715 32.2351 30.8244 30.9958 32.1995 29.4466C33.5992 27.8696 34.6667 25.9139 34.6667 23.3503H33.2248C33.2248 25.4637 32.3605 27.0926 31.1213 28.4887C29.8575 29.9126 28.2644 31.0348 26.8076 32.1839L27.7002 33.3168ZM34.6667 23.3503C34.6667 20.742 33.1915 18.4798 31.0612 17.5056C28.8857 16.5106 26.1611 16.9127 23.8139 19.3527L24.8528 20.3531C26.8309 18.2967 28.9126 18.1091 30.4618 18.8176C32.0565 19.547 33.2248 21.2817 33.2248 23.3503H34.6667ZM26.8076 32.1839C26.3019 32.5827 25.8508 32.9327 25.4161 33.1869C24.9811 33.4413 24.6309 33.5574 24.3333 33.5574V35C24.997 35 25.608 34.7455 26.1435 34.4325C26.6792 34.1193 27.2077 33.7052 27.7002 33.3168L26.8076 32.1839Z" fill="#E2D8FD"/>
</svg>
