<svg width="49" height="49" viewBox="0 0 49 49" fill="none" xmlns="http://www.w3.org/2000/svg">
<rect x="1" y="1" width="47" height="47" rx="23.5" fill="#2B2638"/>
<rect x="1" y="1" width="47" height="47" rx="23.5" stroke="#D9CBFF" stroke-opacity="0.4"/>
<path fill-rule="evenodd" clip-rule="evenodd" d="M23.0337 32.4305C23.4869 32.9594 24.0688 33.25 24.6726 33.25H24.6734C25.2798 33.25 25.8643 32.9594 26.3184 32.4296C26.5617 32.1482 26.9764 32.1253 27.2451 32.3792C27.5146 32.6331 27.5364 33.0685 27.2941 33.3499C26.5871 34.1722 25.6569 34.625 24.6734 34.625H24.6717C23.6908 34.6241 22.7624 34.1713 22.0581 33.349C21.8157 33.0676 21.8376 32.6322 22.1071 32.3792C22.3766 32.1244 22.7913 32.1473 23.0337 32.4305ZM24.7161 14.9167C28.6055 14.9167 31.2183 18.0902 31.2183 21.0538C31.2183 22.5782 31.5884 23.2244 31.9813 23.9101C32.3698 24.5866 32.8099 25.3548 32.8099 26.8068C32.5045 30.5165 28.8076 30.819 24.7161 30.819C20.6246 30.819 16.9269 30.5165 16.625 26.8654C16.6224 25.3548 17.0625 24.5866 17.451 23.9101L17.5882 23.6682C17.9259 23.0602 18.214 22.3988 18.214 21.0538C18.214 18.0902 20.8268 14.9167 24.7161 14.9167ZM24.7161 16.2917C21.658 16.2917 19.5265 18.8015 19.5265 21.0538C19.5265 22.9595 19.0216 23.8404 18.5754 24.6178C18.2175 25.242 17.9349 25.7352 17.9349 26.8068C18.081 28.5356 19.1704 29.444 24.7161 29.444C30.2313 29.444 31.3548 28.4953 31.5 26.7472C31.4974 25.7352 31.2148 25.242 30.8569 24.6178C30.4106 23.8404 29.9058 22.9595 29.9058 21.0538C29.9058 18.8015 27.7743 16.2917 24.7161 16.2917Z" fill="#E2D8FD"/>
<circle cx="39" cy="6" r="3" fill="#E9001C"/>
</svg>
